<svg width="25" height="25" viewBox="0 0 25 25" fill="none" xmlns="http://www.w3.org/2000/svg">
    <g clip-path="url(#035kbw8j4a)">
        <path d="M12.5 0C5.634 0 0 5.634 0 12.5 0 18.359 4.111 23.68 9.57 25v-4.136c-.54.119-1.038.122-1.59-.04-.738-.218-1.338-.71-1.784-1.46-.284-.48-.787-1-1.312-.96l-.129-1.46c1.136-.097 2.118.692 2.701 1.671.259.436.557.691.94.804.37.11.767.057 1.23-.107.116-.926.54-1.273.86-1.761-3.255-.486-4.553-2.214-5.068-3.577-.682-1.81-.316-4.072.89-5.501.024-.028.067-.1.05-.152-.553-1.671.121-3.054.146-3.2.638.188.742-.19 2.774 1.044l.35.21c.148.088.102.038.248.027.849-.23 1.743-.357 2.624-.369.887.012 1.776.139 2.66.379l.113.011c-.01-.001.03-.007.1-.048 2.537-1.537 2.446-1.035 3.126-1.256.025.147.69 1.552.143 3.202-.074.228 2.2 2.31.94 5.652-.515 1.364-1.813 3.092-5.069 3.577v.001c.418.636.92.975.917 2.287V25C20.889 23.68 25 18.359 25 12.5 25 5.634 19.366 0 12.5 0z" fill="#DB706A"/>
    </g>
    <defs>
        <clipPath id="035kbw8j4a">
            <path fill="#fff" d="M0 0h25v25H0z"/>
        </clipPath>
    </defs>
</svg>
