<svg width="27" height="25" viewBox="0 0 27 25" fill="none" xmlns="http://www.w3.org/2000/svg">
    <g clip-path="url(#bbn102m2wa)">
        <path d="M5.413 2.717a2.706 2.706 0 0 1-2.696 2.718A2.706 2.706 0 0 1 .022 2.717C.022 1.217 1.228 0 2.717 0c1.49 0 2.696 1.217 2.696 2.717zm.022 4.892H0V25h5.435V7.609zm8.676 0h-5.4V25h5.401v-9.13c0-5.075 6.553-5.49 6.553 0V25h5.422V13.988c0-8.565-9.698-8.253-11.976-4.037V7.61z" fill="#DB706A"/>
    </g>
    <defs>
        <clipPath id="bbn102m2wa">
            <path fill="#fff" d="M0 0h26.087v25H0z"/>
        </clipPath>
    </defs>
</svg>
